External Loads File
version=1
nRows=85
nColumns=13
Range=5.000000e-03-10 seconds
endheader
time 	forceRightX 	forceRightY 	forceRightZ 	pointRightX 	pointRightY 	pointRightZ 	forceLeftX 	forceLeftY 	forceLeftZ 	pointLeftX 	pointLeftY 	pointLeftZ 		
5.005000 -214.205656 350.533091 -0.000000 0.318276 0.491296 -0.153638 167.585291 608.959686 -0.000000 0.199388 0.171341 -0.380256
5.010000 -254.378291 363.972034 -0.000000 0.325387 0.485710 -0.153244 165.806155 594.536345 -0.000000 0.190916 0.176229 -0.380248
5.015000 -298.740834 374.282083 -0.000000 0.332502 0.479502 -0.152900 162.734840 570.417340 -0.000000 0.182612 0.181688 -0.380192
5.020000 -347.391600 379.322614 -0.000000 0.339261 0.472623 -0.152409 156.409662 534.715518 -0.000000 0.174591 0.187633 -0.380120
5.025000 -398.494053 378.333971 -0.000000 0.346118 0.465213 -0.152504 147.473373 485.777814 -0.000000 0.166882 0.194129 -0.380213
5.030000 -451.291107 369.740346 -0.000000 0.352993 0.457159 -0.152262 135.050220 424.239142 -0.000000 0.159507 0.201115 -0.380167
5.035000 -503.955240 353.458327 -0.000000 0.359437 0.448954 -0.152190 120.126740 353.123053 -0.000000 0.152531 0.208455 -0.380198
5.040000 -92.116632 638.996925 -0.000000 0.365764 0.440255 -0.152186 282.163543 94.397608 -0.000000 0.145966 0.216354 -0.380230
5.045000 -64.129672 670.472310 -0.000000 0.371585 0.431077 -0.151866 223.941343 36.260056 -0.000000 0.139880 0.224649 -0.380249
5.050000 -120.210478 689.053163 -0.000000 0.377541 0.421634 -0.151941 166.027959 19.139763 -0.000000 0.134345 0.233351 -0.380276
5.055000 -90.693947 717.860862 -0.000000 0.382968 0.411872 -0.151771 120.689669 -6.790055 -0.000000 0.129374 0.242398 -0.380243
5.060000 -150.574993 730.715975 -0.000000 0.387747 0.401687 -0.151402 87.383530 -7.400089 -0.000000 0.124992 0.251702 -0.380228
5.065000 -119.138064 757.921114 -0.000000 0.391949 0.391295 -0.150298 64.502748 -12.197903 -0.000000 0.121211 0.261331 -0.380188
5.070000 -179.152123 766.724192 -0.000000 0.396188 0.380710 -0.150712 52.447296 -4.451169 -0.000000 0.118063 0.271196 -0.380071
5.075000 -146.784927 793.448939 -0.000000 0.399684 0.369974 -0.150321 47.090766 -1.043377 -0.000000 0.115510 0.281330 -0.379922
5.080000 -206.965398 799.898936 -0.000000 0.402700 0.358986 -0.149985 46.600625 8.564169 -0.000000 0.113619 0.291697 -0.379779
5.085000 -164.230155 829.622568 -0.000000 0.405103 0.348009 -0.149510 49.746820 11.558970 -0.000000 0.112403 0.302269 -0.379669
5.090000 -222.178106 836.647409 -0.000000 0.406910 0.336995 -0.148941 52.260621 19.480713 -0.000000 0.111828 0.312879 -0.379456
5.095000 -181.167964 867.477057 -0.000000 0.408077 0.325952 -0.148324 56.398145 19.914731 -0.000000 0.111903 0.323619 -0.379251
5.100000 -236.667576 876.016384 -0.000000 0.408675 0.315085 -0.147882 56.885897 25.273613 -0.000000 0.112601 0.334404 -0.379060
5.105000 -168.032037 913.968549 -0.000000 0.408746 0.304226 -0.147982 58.915421 21.366134 -0.000000 0.113930 0.345828 -0.378867
5.110000 -222.675752 925.205416 -0.000000 0.408181 0.293402 -0.147534 56.012997 24.141212 -0.000000 0.115859 0.356467 -0.378765
5.115000 -159.593871 961.000422 -0.000000 0.406742 0.282772 -0.147366 54.205891 18.624279 -0.000000 0.118372 0.366983 -0.378724
5.120000 -212.965257 973.524435 -0.000000 0.404956 0.272280 -0.146635 48.485840 18.443243 -0.000000 0.120690 0.377250 -0.377856
5.125000 -148.949246 1007.425316 -0.000000 0.402586 0.261807 -0.146534 43.629598 11.288715 -0.000000 0.124398 0.387570 -0.377913
5.130000 -202.721030 1019.218659 -0.000000 0.399726 0.251759 -0.146516 36.544155 8.153501 -0.000000 0.128698 0.397647 -0.378070
5.135000 -125.202931 1050.931759 -0.000000 0.396334 0.241901 -0.146484 29.791047 -0.556066 -0.000000 0.133507 0.407437 -0.378058
5.140000 -179.067192 1060.147024 -0.000000 0.392479 0.232409 -0.146731 22.697468 -6.341949 -0.000000 0.138806 0.416982 -0.378032
5.145000 -101.389194 1084.025487 -0.000000 0.387921 0.223335 -0.146530 14.552454 -15.670938 -0.000000 0.144550 0.426207 -0.377909
5.150000 -149.800981 1088.100451 -0.000000 0.382893 0.214599 -0.146360 8.050844 -23.809456 -0.000000 0.150890 0.435454 -0.378182
5.155000 -60.549569 1101.658275 -0.000000 0.377321 0.206485 -0.146169 -1.705460 -33.053093 -0.000000 0.157453 0.444468 -0.377085
5.160000 -106.330214 1097.952202 -0.000000 0.371324 0.198642 -0.145982 -7.628894 -42.114615 -0.000000 0.164190 0.452986 -0.376631
5.165000 -150.038159 1086.938458 -0.000000 0.364940 0.191400 -0.145847 -12.785061 -51.112918 -0.000000 0.171360 0.461011 -0.376259
5.170000 -64.504261 1083.549916 -0.000000 0.357898 0.184658 -0.145363 -24.144737 -56.781194 -0.000000 0.180127 0.469101 -0.377245
5.175000 29.187078 1067.136390 -0.000000 0.350791 0.178516 -0.145163 -36.600365 -58.484791 -0.000000 0.187269 0.475800 -0.376324
5.180000 -10.530894 1043.257042 -0.000000 0.343468 0.172818 -0.145028 -41.380794 -61.279177 -0.000000 0.195285 0.482111 -0.376279
5.185000 73.565204 1010.002994 -0.000000 0.336026 0.167522 -0.144892 -52.479762 -55.389306 -0.000000 0.203598 0.487645 -0.376267
5.190000 37.306879 974.774886 -0.000000 0.328305 0.162838 -0.144654 -55.818765 -52.008000 -0.000000 0.212353 0.492512 -0.376692
5.195000 121.522989 923.601457 -0.000000 0.320375 0.158686 -0.144391 -63.895148 -38.429967 -0.000000 0.220889 0.496819 -0.376864
5.200000 87.630623 876.403893 -0.000000 0.312219 0.155289 -0.143745 -65.384688 -30.314999 -0.000000 0.229596 0.500564 -0.377054
5.205000 157.174375 808.062130 -0.000000 0.303987 0.152589 -0.143369 -68.818153 -12.475779 -0.000000 0.238531 0.503545 -0.377271
5.210000 127.532713 748.558487 -0.000000 0.295812 0.150431 -0.142953 -69.329960 -1.281028 -0.000000 0.246760 0.505797 -0.377550
5.215000 102.501119 682.548079 -0.000000 0.287596 0.148927 -0.142628 -70.612968 11.450915 -0.000000 0.255330 0.507620 -0.377742
5.220000 81.350228 611.900211 -0.000000 0.279406 0.148349 -0.142453 -73.369815 26.103930 -0.000000 0.263733 0.508735 -0.377906
5.225000 64.602750 538.626934 -0.000000 0.271230 0.148488 -0.142676 -78.405038 43.225402 -0.000000 0.271910 0.509101 -0.378418
5.230000 51.933164 465.047048 -0.000000 0.262920 0.149383 -0.142698 -86.602276 63.071077 -0.000000 0.280107 0.508851 -0.378200
5.235000 43.331703 393.417654 -0.000000 0.254583 0.150998 -0.142771 -98.758366 85.451522 -0.000000 0.288158 0.507834 -0.378264
5.240000 154.697389 289.346776 -0.000000 0.246084 0.153254 -0.142945 -67.622277 143.979334 -0.000000 0.296070 0.504650 -0.378302
5.245000 166.737406 208.141893 -0.000000 0.237450 0.156251 -0.143113 -49.774090 184.754975 -0.000000 0.303910 0.501925 -0.378193
5.250000 139.618077 160.964976 -0.000000 0.228744 0.159611 -0.143458 -61.894746 217.862465 -0.000000 0.311474 0.498151 -0.378288
5.255000 130.243421 106.754570 -0.000000 0.220031 0.163626 -0.143843 -53.892969 258.495069 -0.000000 0.318798 0.493548 -0.378612
5.260000 111.225046 73.652209 -0.000000 0.211383 0.168253 -0.144125 -75.456379 294.303817 -0.000000 0.325805 0.488146 -0.379105
5.265000 101.664250 37.480908 -0.000000 0.202843 0.173496 -0.144398 -73.263861 337.639363 -0.000000 0.332516 0.481890 -0.379801
5.270000 91.134904 17.469108 -0.000000 0.194472 0.179279 -0.144710 -105.311814 374.037263 -0.000000 0.339011 0.475003 -0.380510
5.275000 84.614507 -9.133519 -0.000000 0.186360 0.185731 -0.144929 -84.546758 424.022658 -0.000000 0.345349 0.467571 -0.381214
5.280000 80.813895 -17.889016 -0.000000 0.178525 0.192696 -0.145097 -124.582351 459.453457 -0.000000 0.351527 0.460481 -0.381800
5.285000 76.656770 -32.762202 -0.000000 0.171061 0.200086 -0.145385 -103.167904 508.421959 -0.000000 0.357638 0.452442 -0.382192
5.290000 78.522801 -33.294841 -0.000000 0.164082 0.208059 -0.145617 -149.411495 539.550808 -0.000000 0.363417 0.443986 -0.382356
5.295000 77.329087 -41.509566 -0.000000 0.157564 0.216335 -0.145650 -119.623688 586.639942 -0.000000 0.369507 0.435184 -0.382684
5.300000 82.852608 -36.429250 -0.000000 0.151536 0.224893 -0.145783 -168.418992 612.293071 -0.000000 0.375051 0.426189 -0.382742
5.305000 84.903110 -39.003811 -0.000000 0.146172 0.233857 -0.145707 -143.945826 652.997737 -0.000000 0.380285 0.416610 -0.382753
5.310000 91.569151 -30.310026 -0.000000 0.141325 0.243088 -0.145760 -191.707254 672.777758 -0.000000 0.385174 0.406861 -0.382871
5.315000 94.029724 -32.142322 -0.000000 0.137277 0.252556 -0.145694 -151.223660 711.712234 -0.000000 0.389645 0.396710 -0.382683
5.320000 99.462747 -22.026387 -0.000000 0.133876 0.262303 -0.145680 -193.182728 727.449637 -0.000000 0.393577 0.386393 -0.382585
5.325000 100.765097 -24.062024 -0.000000 0.130931 0.272322 -0.145808 -140.746485 761.576347 -0.000000 0.396981 0.375752 -0.382608
5.330000 103.171564 -14.645832 -0.000000 0.128681 0.282605 -0.145927 -172.107895 773.723463 -0.000000 0.399833 0.365075 -0.382657
5.335000 103.230615 -6.532654 -0.000000 0.126986 0.292992 -0.146116 -195.322180 782.868313 -0.000000 0.402093 0.354235 -0.382765
5.340000 101.169432 0.001911 -0.000000 0.125788 0.303693 -0.146389 -212.972131 789.012892 -0.000000 0.403779 0.343263 -0.382854
5.345000 97.331872 4.445202 -0.000000 0.125317 0.314587 -0.146394 -226.214687 792.583225 -0.000000 0.404969 0.332285 -0.382940
5.350000 92.177029 6.580765 -0.000000 0.125247 0.325494 -0.146710 -238.289421 793.440265 -0.000000 0.405585 0.321247 -0.383064
5.355000 86.216159 6.208835 -0.000000 0.125696 0.336606 -0.146794 -251.491077 791.572066 -0.000000 0.405630 0.310145 -0.383139
5.360000 79.913901 3.758725 -0.000000 0.126844 0.347793 -0.146843 -271.777893 785.562067 -0.000000 0.405418 0.299168 -0.383801
5.365000 73.702823 -0.804710 -0.000000 0.128413 0.358897 -0.147098 -298.168613 776.038466 -0.000000 0.404087 0.288361 -0.383234
5.370000 67.890161 -6.397534 -0.000000 0.130402 0.369951 -0.147757 -338.599886 760.194722 -0.000000 0.402387 0.277764 -0.383169
5.375000 62.694066 -12.639398 -0.000000 0.133227 0.380827 -0.147880 -392.286837 738.128685 -0.000000 0.400149 0.267459 -0.383109
5.380000 58.216978 -18.824486 -0.000000 0.136445 0.391402 -0.148590 -460.519383 708.832936 -0.000000 0.397303 0.257363 -0.383031
5.385000 54.429640 -24.432860 -0.000000 0.140009 0.401967 -0.148984 -540.970471 672.286320 -0.000000 0.393776 0.247614 -0.382966
5.390000 16.569838 -56.481101 -0.000000 0.144271 0.411985 -0.149358 -14.017667 888.845075 -0.000000 0.389656 0.238071 -0.382820
5.395000 11.744838 -56.948323 -0.000000 0.149073 0.421851 -0.149754 -105.443054 914.092581 -0.000000 0.384983 0.228893 -0.382817
5.400000 1.055293 -56.918688 -0.000000 0.154262 0.431404 -0.150129 -84.561877 947.477461 -0.000000 0.379735 0.220151 -0.382740
5.405000 -9.850814 -53.832994 -0.000000 0.160075 0.440747 -0.150409 -34.223663 976.851506 -0.000000 0.373915 0.211743 -0.382677
5.410000 -13.508613 -49.416373 -0.000000 0.166300 0.449391 -0.150826 -98.184720 990.875841 -0.000000 0.367683 0.203656 -0.382730
5.415000 -22.652743 -40.555484 -0.000000 0.172503 0.457868 -0.151465 -38.764145 1004.037213 -0.000000 0.360937 0.196207 -0.382637
5.420000 -27.271761 -30.886720 -0.000000 0.179907 0.465382 -0.151406 -85.890121 1000.928320 -0.000000 0.353765 0.189213 -0.382573
5.425000 -35.562692 -13.714260 -0.000000 0.187509 0.472923 -0.152464 2.289367 995.883574 -0.000000 0.346211 0.182709 -0.382590
